<svg width="251" height="76" viewBox="0 0 251 76" fill="none" xmlns="http://www.w3.org/2000/svg">
<g id="brand-2">
<path id="Vector" d="M44.6629 21.572H48.4508V47.9357H59.8144V51.7235H44.6629V21.572ZM71.6137 21.572C73.8612 21.572 76.0582 22.2385 77.9269 23.4872C79.7957 24.7358 81.2523 26.5105 82.1123 28.587C82.9724 30.6635 83.1974 32.9483 82.7589 35.1525C82.3205 37.3569 81.2383 39.3817 79.6489 40.9709C78.0597 42.5603 76.0349 43.6425 73.8305 44.0809C71.6264 44.5194 69.3415 44.2944 67.265 43.4343C65.1885 42.5741 63.4138 41.1177 62.1652 39.2489C60.9165 37.3802 60.25 35.1832 60.25 32.9357C60.25 31.4434 60.544 29.9656 61.115 28.587C61.686 27.2082 62.5231 25.9555 63.5784 24.9004C64.6335 23.8451 65.8862 23.008 67.265 22.437C68.6436 21.866 70.1214 21.572 71.6137 21.572ZM71.6137 40.5114C73.112 40.5114 74.5767 40.0671 75.8226 39.2347C77.0684 38.4021 78.0394 37.219 78.6127 35.8347C79.1862 34.4504 79.3362 32.9273 79.0438 31.4576C78.7515 29.9881 78.0299 28.6383 76.9705 27.5788C75.911 26.5194 74.5612 25.7978 73.0917 25.5055C71.622 25.2131 70.0989 25.3631 68.7146 25.9366C67.3303 26.5099 66.147 27.4809 65.3146 28.7268C64.4822 29.9726 64.0379 31.4374 64.0379 32.9357C64.0479 34.9383 64.8504 36.8555 66.2701 38.268C67.6898 39.6805 69.611 40.4735 71.6137 40.4735V40.5114ZM64.0379 47.9735H79.1894V51.7614H64.0379V47.9735ZM112.523 51.7614H108.735V49.0531C106.292 50.7629 103.383 51.6819 100.402 51.6857C97.8589 51.7027 95.3529 51.0796 93.1144 49.8737C90.8758 48.6677 88.9767 46.9179 87.5923 44.7853C86.2076 42.6527 85.3818 40.2059 85.1913 37.6703C85.0006 35.1349 85.4512 32.5921 86.5014 30.2766C87.5515 27.9608 89.1676 25.9466 91.2006 24.4197C93.2337 22.8927 95.6184 21.9018 98.1349 21.5385C100.652 21.175 103.219 21.451 105.601 22.3406C107.983 23.2302 110.103 24.7048 111.765 26.6288L108.981 29.1099C107.717 27.6963 106.119 26.6216 104.333 25.9839C102.547 25.3461 100.629 25.1654 98.7557 25.4584C96.8818 25.7514 95.1114 26.5088 93.6051 27.6612C92.0991 28.8139 90.9053 30.3249 90.133 32.0571C89.3604 33.7891 89.0337 35.6868 89.1826 37.5775C89.3315 39.4682 89.951 41.2915 90.9851 42.8813C92.0191 44.4711 93.4345 45.7769 95.1025 46.6796C96.7703 47.5822 98.6377 48.0531 100.534 48.0493C102.108 48.0525 103.664 47.7158 105.096 47.062C106.527 46.4082 107.801 45.4529 108.83 44.2614H98.6023V40.4735H112.561L112.523 51.7614ZM126.462 21.6478C128.71 21.6478 130.907 22.3143 132.775 23.5629C134.644 24.8116 136.101 26.5862 136.961 28.6627C137.821 30.7393 138.046 33.0241 137.607 35.2283C137.169 37.4326 136.087 39.4574 134.497 41.0466C132.908 42.636 130.883 43.7182 128.679 44.1567C126.475 44.5951 124.19 44.3701 122.113 43.5101C120.037 42.6499 118.262 41.1934 117.014 39.3247C115.765 37.4559 115.099 35.2589 115.099 33.0114C115.088 31.5095 115.376 30.0207 115.945 28.6307C116.514 27.2408 117.353 25.9773 118.413 24.9137C119.474 23.8499 120.734 23.0069 122.122 22.4332C123.51 21.8597 124.998 21.5669 126.5 21.572L126.462 21.6478ZM126.462 40.5872C127.96 40.5872 129.425 40.1428 130.671 39.3105C131.917 38.4779 132.888 37.2947 133.461 35.9105C134.035 34.5262 134.185 33.0031 133.892 31.5334C133.6 30.0639 132.878 28.7141 131.819 27.6546C130.759 26.5951 129.41 25.8735 127.94 25.5813C126.47 25.2889 124.947 25.4389 123.563 26.0124C122.179 26.5857 120.995 27.5567 120.163 28.8025C119.331 30.0483 118.886 31.5131 118.886 33.0114C118.916 35.0074 119.733 36.911 121.159 38.3084C122.584 39.7055 124.504 40.4838 126.5 40.4735L126.462 40.5872ZM118.886 48.0493H134.038V51.8372H118.886V48.0493ZM141.86 21.572H145.648V51.6857H141.86V21.572ZM150.894 21.572H154.682C154.877 21.5514 155.074 21.5514 155.269 21.572C156.855 21.3999 158.46 21.5639 159.979 22.0531C161.498 22.5425 162.897 23.3461 164.084 24.4118C165.272 25.4775 166.222 26.7815 166.872 28.2387C167.522 29.6959 167.858 31.2737 167.858 32.8694C167.858 34.465 167.522 36.0428 166.872 37.5C166.222 38.9572 165.272 40.2612 164.084 41.3269C162.897 42.3927 161.498 43.1963 159.979 43.6857C158.46 44.1749 156.855 44.3389 155.269 44.1667H154.682V51.7425H150.894V21.572ZM154.682 25.3599V40.341H155.269C156.339 40.4834 157.427 40.3957 158.46 40.0834C159.493 39.7713 160.448 39.2419 161.26 38.5309C162.072 37.8199 162.722 36.9436 163.168 35.9607C163.614 34.9777 163.845 33.9108 163.845 32.8315C163.845 31.7521 163.614 30.6853 163.168 29.7023C162.722 28.7194 162.072 27.843 161.26 27.1321C160.448 26.4209 159.493 25.8917 158.46 25.5794C157.427 25.2673 156.339 25.1796 155.269 25.322C155.063 25.3434 154.859 25.3879 154.663 25.4546L154.682 25.3599ZM181.974 23.75L179.17 25.966C178.687 25.4607 178.069 25.1038 177.39 24.9375C176.71 24.7713 175.998 24.8023 175.335 25.0271C174.673 25.2518 174.089 25.6608 173.651 26.2063C173.213 26.7518 172.94 27.4108 172.864 28.1061V28.4091C172.864 30.0758 174.019 31.1932 176.273 31.3447C184.947 31.875 188.924 35.947 188.924 41.3258V41.6667C188.7 43.7955 187.87 45.8152 186.531 47.4857C185.192 49.1561 183.402 50.4067 181.373 51.0891C179.344 51.7713 177.162 51.8565 175.086 51.3343C173.01 50.8124 171.128 49.705 169.663 48.144L172.561 45.9091C173.235 46.6321 174.059 47.1995 174.974 47.5724C175.89 47.9451 176.876 48.1144 177.864 48.0682C179.688 48.1644 181.479 47.5521 182.862 46.3591C184.245 45.1663 185.115 43.4851 185.288 41.6667V41.4016C185.288 36.3447 180.326 35.4167 176.027 35C172.049 34.6213 169.189 32.1402 169.189 28.5607V28.4091C169.33 26.5455 170.18 24.8069 171.565 23.5523C172.95 22.2976 174.764 21.6226 176.633 21.6667C177.623 21.6375 178.608 21.8161 179.525 22.1913C180.441 22.5665 181.269 23.1298 181.955 23.8447L181.974 23.75ZM203.754 47.841C208.47 47.841 212.201 42.7463 212.201 36.4773V21.3258H215.989V36.4773C215.989 44.8107 210.534 51.5341 203.83 51.5341C197.125 51.5341 191.67 44.8107 191.67 36.4773V21.3258H195.458V36.4773C195.307 42.841 199.038 47.9357 203.735 47.9357L203.754 47.841ZM245.061 51.6288H241.273V32.8788L232.542 44.2425L223.811 32.8788V51.6857H220.023V21.572L232.523 38.0303L245.023 21.572L245.061 51.6288Z" fill="#1D2058"/>
<path id="Vector_2" d="M26.4811 17.0455C26.4811 14.3129 25.3957 11.6923 23.4635 9.76012C21.5313 7.82792 18.9106 6.74243 16.1781 6.74243C13.4455 6.74243 10.8249 7.82792 8.89272 9.76012C6.96052 11.6923 5.87503 14.3129 5.87503 17.0455V48.2008L14.3599 54.2803V69.0909H17.9962V54.2803L26.4811 48.2008V17.0455ZM22.8447 34.4697L17.9962 39.3182V34.7727L22.8447 29.9242V34.4697ZM9.58715 29.9242L14.4356 34.7727V39.3182L9.58715 34.4697V29.9242ZM22.8447 24.7727L16.1781 31.4394L9.51139 24.6212V20.0758L16.1781 26.7424L22.8447 20.0758V24.7727ZM16.1781 10.3788C17.6443 10.3853 19.0679 10.8722 20.2309 11.765C21.394 12.6578 22.2322 13.9073 22.6175 15.322L16.1781 21.7424L9.73867 15.322C10.1098 13.8932 10.942 12.6268 12.1063 11.7193C13.2707 10.8119 14.7019 10.314 16.1781 10.303V10.3788ZM9.51139 46.3636V39.5455L14.3599 44.3939V49.8106L9.51139 46.3636ZM17.9962 49.8296V44.3939L22.8447 39.5455V46.3447L17.9962 49.8296Z" fill="url(#paint0_linear_7_2218)"/>
</g>
<defs>
<linearGradient id="paint0_linear_7_2218" x1="6.77881" y1="37.9167" x2="28.0385" y2="37.9928" gradientUnits="userSpaceOnUse">
<stop stop-color="#1259C4"/>
<stop offset="1" stop-color="#BB37E9"/>
</linearGradient>
</defs>
</svg>
