<svg width="250" height="76" viewBox="0 0 250 76" fill="none" xmlns="http://www.w3.org/2000/svg">
<g id="brand-4">
<path id="Vector" d="M43.9962 21.572H47.7841V47.9357H59.1477V51.7235H43.9962V21.572ZM70.947 21.572C73.1945 21.572 75.3915 22.2385 77.2602 23.4872C79.129 24.7358 80.5856 26.5105 81.4456 28.587C82.3057 30.6635 82.5307 32.9483 82.0922 35.1525C81.6538 37.3569 80.5716 39.3817 78.9822 40.9709C77.393 42.5603 75.3682 43.6425 73.1638 44.0809C70.9597 44.5194 68.6748 44.2944 66.5983 43.4343C64.5218 42.5741 62.7472 41.1177 61.4985 39.2489C60.2498 37.3802 59.5833 35.1832 59.5833 32.9357C59.5833 31.4434 59.8773 29.9656 60.4483 28.587C61.0193 27.2082 61.8564 25.9555 62.9117 24.9004C63.9669 23.8451 65.2195 23.008 66.5983 22.437C67.9769 21.866 69.4547 21.572 70.947 21.572ZM70.947 40.5114C72.4453 40.5114 73.91 40.0671 75.1559 39.2347C76.4017 38.4021 77.3727 37.219 77.946 35.8347C78.5195 34.4504 78.6695 32.9273 78.3771 31.4576C78.0849 29.9881 77.3633 28.6383 76.3038 27.5788C75.2443 26.5194 73.8945 25.7978 72.425 25.5055C70.9553 25.2131 69.4322 25.3631 68.0479 25.9366C66.6636 26.5099 65.4803 27.4809 64.6479 28.7268C63.8155 29.9726 63.3712 31.4374 63.3712 32.9357C63.3813 34.9383 64.1837 36.8555 65.6034 38.268C67.0231 39.6805 68.9443 40.4735 70.947 40.4735V40.5114ZM63.3712 47.9735H78.5227V51.7614H63.3712V47.9735ZM111.856 51.7614H108.068V49.0531C105.625 50.7629 102.717 51.6819 99.7349 51.6857C97.1922 51.7027 94.6862 51.0796 92.4477 49.8737C90.2091 48.6677 88.31 46.9179 86.9256 44.7853C85.5409 42.6527 84.7152 40.2059 84.5246 37.6703C84.3339 35.1349 84.7845 32.5921 85.8347 30.2766C86.8849 27.9608 88.5009 25.9466 90.5339 24.4197C92.567 22.8927 94.9517 21.9018 97.4682 21.5385C99.9849 21.175 102.552 21.451 104.934 22.3406C107.316 23.2302 109.436 24.7048 111.098 26.6288L108.314 29.1099C107.05 27.6963 105.452 26.6216 103.666 25.9839C101.88 25.3461 99.9627 25.1654 98.089 25.4584C96.2152 25.7514 94.4447 26.5088 92.9384 27.6612C91.4324 28.8139 90.2386 30.3249 89.4663 32.0571C88.6938 33.7891 88.3671 35.6868 88.5159 37.5775C88.6648 39.4682 89.2843 41.2915 90.3184 42.8813C91.3525 44.4711 92.7678 45.7769 94.4358 46.6796C96.1036 47.5822 97.971 48.0531 99.8674 48.0493C101.441 48.0525 102.997 47.7158 104.429 47.062C105.861 46.4082 107.134 45.4529 108.163 44.2614H97.9356V40.4735H111.894L111.856 51.7614ZM125.795 21.6478C128.043 21.6478 130.24 22.3143 132.109 23.5629C133.977 24.8116 135.434 26.5862 136.294 28.6627C137.154 30.7393 137.379 33.0241 136.941 35.2283C136.502 37.4326 135.42 39.4574 133.831 41.0466C132.241 42.636 130.217 43.7182 128.012 44.1567C125.808 44.5951 123.523 44.3701 121.447 43.5101C119.37 42.6499 117.596 41.1934 116.347 39.3247C115.098 37.4559 114.432 35.2589 114.432 33.0114C114.422 31.5095 114.71 30.0207 115.279 28.6307C115.848 27.2408 116.686 25.9773 117.747 24.9137C118.807 23.8499 120.067 23.0069 121.455 22.4332C122.844 21.8597 124.331 21.5669 125.833 21.572L125.795 21.6478ZM125.795 40.5872C127.294 40.5872 128.759 40.1428 130.004 39.3105C131.25 38.4779 132.221 37.2947 132.795 35.9105C133.368 34.5262 133.518 33.0031 133.226 31.5334C132.933 30.0639 132.212 28.7141 131.152 27.6546C130.093 26.5951 128.743 25.8735 127.273 25.5813C125.804 25.2889 124.281 25.4389 122.896 26.0124C121.512 26.5857 120.329 27.5567 119.496 28.8025C118.664 30.0483 118.22 31.5131 118.22 33.0114C118.25 35.0074 119.066 36.911 120.492 38.3084C121.917 39.7055 123.837 40.4838 125.833 40.4735L125.795 40.5872ZM118.22 48.0493H133.371V51.8372H118.22V48.0493ZM141.193 21.572H144.981V51.6857H141.193V21.572ZM150.227 21.572H154.015C154.21 21.5514 154.407 21.5514 154.602 21.572C156.189 21.3999 157.794 21.5639 159.312 22.0531C160.831 22.5425 162.23 23.3461 163.417 24.4118C164.605 25.4775 165.555 26.7815 166.205 28.2387C166.856 29.6959 167.191 31.2737 167.191 32.8694C167.191 34.465 166.856 36.0428 166.205 37.5C165.555 38.9572 164.605 40.2612 163.417 41.3269C162.23 42.3927 160.831 43.1963 159.312 43.6857C157.794 44.1749 156.189 44.3389 154.602 44.1667H154.015V51.7425H150.227V21.572ZM154.015 25.3599V40.341H154.602C155.672 40.4834 156.76 40.3957 157.793 40.0834C158.827 39.7713 159.781 39.2419 160.593 38.5309C161.405 37.8199 162.056 36.9436 162.502 35.9607C162.947 34.9777 163.178 33.9108 163.178 32.8315C163.178 31.7521 162.947 30.6853 162.502 29.7023C162.056 28.7194 161.405 27.843 160.593 27.1321C159.781 26.4209 158.827 25.8917 157.793 25.5794C156.76 25.2673 155.672 25.1796 154.602 25.322C154.396 25.3434 154.193 25.3879 153.996 25.4546L154.015 25.3599ZM181.307 23.75L178.504 25.966C178.02 25.4607 177.402 25.1038 176.723 24.9375C176.044 24.7713 175.331 24.8023 174.669 25.0271C174.006 25.2518 173.422 25.6608 172.984 26.2063C172.546 26.7518 172.273 27.4108 172.197 28.1061V28.4091C172.197 30.0758 173.352 31.1932 175.606 31.3447C184.28 31.875 188.258 35.947 188.258 41.3258V41.6667C188.034 43.7955 187.203 45.8152 185.864 47.4857C184.526 49.1561 182.735 50.4067 180.706 51.0891C178.677 51.7713 176.495 51.8565 174.419 51.3343C172.343 50.8124 170.461 49.705 168.996 48.144L171.894 45.9091C172.568 46.6321 173.392 47.1995 174.308 47.5724C175.223 47.9451 176.209 48.1144 177.197 48.0682C179.021 48.1644 180.812 47.5521 182.195 46.3591C183.579 45.1663 184.448 43.4851 184.621 41.6667V41.4016C184.621 36.3447 179.659 35.4167 175.36 35C171.383 34.6213 168.523 32.1402 168.523 28.5607V28.4091C168.663 26.5455 169.513 24.8069 170.898 23.5523C172.284 22.2976 174.098 21.6226 175.966 21.6667C176.956 21.6375 177.941 21.8161 178.858 22.1913C179.775 22.5665 180.602 23.1298 181.288 23.8447L181.307 23.75ZM203.087 47.841C207.803 47.841 211.534 42.7463 211.534 36.4773V21.3258H215.322V36.4773C215.322 44.8107 209.867 51.5341 203.163 51.5341C196.458 51.5341 191.004 44.8107 191.004 36.4773V21.3258H194.792V36.4773C194.64 42.841 198.371 47.9357 203.068 47.9357L203.087 47.841ZM244.394 51.6288H240.606V32.8788L231.875 44.2425L223.144 32.8788V51.6857H219.356V21.572L231.856 38.0303L244.356 21.572L244.394 51.6288Z" fill="#1D2058"/>
<path id="Vector_2" d="M25.8144 17.0455C25.8144 14.3129 24.729 11.6923 22.7968 9.76012C20.8646 7.82792 18.2439 6.74243 15.5113 6.74243C12.7788 6.74243 10.1582 7.82792 8.226 9.76012C6.29381 11.6923 5.20831 14.3129 5.20831 17.0455V48.2008L13.6932 54.2803V69.0909H17.3295V54.2803L25.8144 48.2008V17.0455ZM22.178 34.4697L17.3295 39.3182V34.7727L22.178 29.9242V34.4697ZM8.92043 29.9242L13.7689 34.7727V39.3182L8.92043 34.4697V29.9242ZM22.178 24.7727L15.5113 31.4394L8.84468 24.6212V20.0758L15.5113 26.7424L22.178 20.0758V24.7727ZM15.5113 10.3788C16.9775 10.3853 18.4012 10.8722 19.5642 11.765C20.7273 12.6578 21.5655 13.9073 21.9507 15.322L15.5113 21.7424L9.07195 15.322C9.44305 13.8932 10.2753 12.6268 11.4396 11.7193C12.6039 10.8119 14.0352 10.314 15.5113 10.303V10.3788ZM8.84468 46.3636V39.5455L13.6932 44.3939V49.8106L8.84468 46.3636ZM17.3295 49.8296V44.3939L22.178 39.5455V46.3447L17.3295 49.8296Z" fill="url(#paint0_linear_7_2233)"/>
</g>
<defs>
<linearGradient id="paint0_linear_7_2233" x1="6.11209" y1="37.9167" x2="27.3718" y2="37.9928" gradientUnits="userSpaceOnUse">
<stop stop-color="#1259C4"/>
<stop offset="1" stop-color="#BB37E9"/>
</linearGradient>
</defs>
</svg>
