<svg width="253" height="66" viewBox="0 0 253 66" fill="none" xmlns="http://www.w3.org/2000/svg">
<g id="brand-1">
<path id="Vector" d="M75.2267 20.7797H81.3477V45.5289H75.2267V20.7797ZM83.7756 36.1842C83.7756 30.0632 87.5298 26.411 93.3244 26.411C99.1189 26.411 102.873 30.0632 102.873 36.1842C102.873 42.3051 99.2005 45.9777 93.3244 45.9777C87.4482 45.9777 83.7756 42.4072 83.7756 36.1842ZM96.7317 36.1842C96.7317 32.8176 95.4055 30.8385 93.3244 30.8385C91.2432 30.8385 89.9374 32.8789 89.9374 36.1842C89.9374 39.4895 91.2228 41.489 93.3244 41.489C95.4259 41.489 96.7317 39.6119 96.7317 36.2046V36.1842ZM105.179 46.7326H111.055C111.334 47.3539 111.807 47.8683 112.403 48.1992C112.998 48.53 113.685 48.6597 114.36 48.5689C116.686 48.5689 117.91 47.3039 117.91 45.4676V42.0399H117.788C117.3 43.0905 116.509 43.9707 115.516 44.5673C114.523 45.1636 113.374 45.4489 112.218 45.386C107.749 45.386 104.791 41.9787 104.791 36.123C104.791 30.2672 107.607 26.5743 112.299 26.5743C113.492 26.5275 114.671 26.8464 115.677 27.4881C116.684 28.13 117.47 29.0641 117.931 30.1652V26.7579H124.052V45.3248C124.052 49.7931 120.114 52.568 114.299 52.568C108.892 52.568 105.525 50.14 105.179 46.753V46.7326ZM117.931 36.1638C117.931 33.1849 116.564 31.3078 114.401 31.3078C112.238 31.3078 110.912 33.1645 110.912 36.1638C110.912 39.163 112.218 40.8565 114.401 40.8565C116.584 40.8565 117.931 39.2039 117.931 36.1842V36.1638ZM126.357 36.1638C126.357 30.0428 130.111 26.3906 135.906 26.3906C141.7 26.3906 145.475 30.0428 145.475 36.1638C145.475 42.2847 141.802 45.9573 135.906 45.9573C130.009 45.9573 126.357 42.4072 126.357 36.1842V36.1638ZM139.313 36.1638C139.313 32.7972 137.987 30.8181 135.906 30.8181C133.825 30.8181 132.621 32.8789 132.621 36.2046C132.621 39.5303 133.906 41.5094 135.987 41.5094C138.069 41.5094 139.313 39.6119 139.313 36.2046V36.1638ZM147.801 22.31C147.785 21.692 147.953 21.0831 148.283 20.5606C148.614 20.0381 149.092 19.6255 149.657 19.375C150.222 19.1245 150.849 19.0475 151.458 19.1537C152.067 19.2599 152.631 19.5446 153.078 19.9715C153.525 20.3985 153.835 20.9487 153.969 21.5522C154.103 22.1557 154.055 22.7854 153.831 23.3616C153.606 23.9375 153.216 24.4342 152.709 24.7882C152.203 25.1422 151.602 25.3378 150.984 25.3501C150.574 25.3782 150.163 25.3213 149.776 25.183C149.39 25.0446 149.036 24.8279 148.737 24.5462C148.438 24.2646 148.2 23.9241 148.039 23.5462C147.878 23.1686 147.797 22.7615 147.801 22.3508V22.31ZM147.801 26.7987H153.922V45.5289H147.801V26.7987ZM176.141 36.1638C176.141 42.2847 173.427 45.7737 168.775 45.7737C167.583 45.8502 166.395 45.5586 165.373 44.9384C164.351 44.3179 163.545 43.3988 163.063 42.3051H162.94V51.5274H156.819V26.7579H162.94V30.104H163.063C163.522 28.9922 164.314 28.0492 165.329 27.403C166.343 26.7569 167.533 26.439 168.735 26.4926C173.427 26.5743 176.223 30.0836 176.223 36.2046L176.141 36.1638ZM170.02 36.1638C170.02 33.1849 168.653 31.2874 166.511 31.2874C164.368 31.2874 163.001 33.2053 162.981 36.1638C162.961 39.1222 164.368 41.0197 166.511 41.0197C168.653 41.0197 170.02 39.163 170.02 36.2046V36.1638ZM186.649 26.3702C191.729 26.3702 194.81 28.7778 194.953 32.634H189.383C189.383 31.3078 188.281 30.4713 186.587 30.4713C184.894 30.4713 184.139 31.1242 184.139 32.0831C184.139 33.0421 184.812 33.3481 186.179 33.6338L190.097 34.4295C193.831 35.2252 195.422 36.7351 195.422 39.5711C195.422 43.4477 191.892 45.9369 186.69 45.9369C181.487 45.9369 178.079 43.4477 177.814 39.6323H183.711C183.894 41.0197 184.996 41.8359 186.792 41.8359C188.587 41.8359 189.403 41.2442 189.403 40.2648C189.403 39.2855 188.832 39.0814 187.363 38.7754L183.833 38.0205C180.181 37.2655 178.263 35.3272 178.263 32.4708C178.304 28.7982 181.589 26.411 186.649 26.411V26.3702ZM215.846 45.488H209.949V41.9991H209.827C209.502 43.1704 208.788 44.1957 207.801 44.9047C206.813 45.6135 205.613 45.9634 204.4 45.8961C203.47 45.949 202.539 45.8016 201.671 45.464C200.803 45.1263 200.017 44.6064 199.367 43.939C198.718 43.2718 198.218 42.4727 197.904 41.5959C197.589 40.7192 197.467 39.7851 197.544 38.857V26.7579H203.665V37.4492C203.665 39.6731 204.808 40.8565 206.705 40.8565C207.15 40.8573 207.591 40.7633 207.997 40.5803C208.401 40.3972 208.764 40.1295 209.058 39.7953C209.349 39.4609 209.57 39.0678 209.698 38.6422C209.827 38.2163 209.866 37.7679 209.806 37.3268V26.7579H215.927L215.846 45.488ZM218.804 26.7579H224.721V30.3693H224.844C225.168 29.2134 225.868 28.1977 226.831 27.4816C227.794 26.7654 228.969 26.3888 230.169 26.411C231.391 26.3133 232.603 26.6787 233.568 27.4349C234.531 28.191 235.176 29.2822 235.372 30.4917H235.494C235.863 29.2693 236.63 28.2051 237.673 27.4663C238.714 26.7275 239.973 26.3561 241.248 26.411C242.08 26.3831 242.909 26.5306 243.68 26.844C244.453 27.1572 245.149 27.6295 245.726 28.2298C246.304 28.8302 246.748 29.5454 247.032 30.3287C247.314 31.1119 247.43 31.9462 247.369 32.7768V45.5289H241.248V34.4091C241.248 32.3688 240.33 31.4302 238.616 31.4302C238.234 31.427 237.855 31.5057 237.506 31.6612C237.157 31.8167 236.845 32.0452 236.592 32.3314C236.339 32.6177 236.149 32.9548 236.037 33.3202C235.925 33.6858 235.894 34.071 235.943 34.4499V45.5289H230.128V34.3275C230.128 32.4504 229.21 31.4302 227.537 31.4302C227.151 31.4304 226.768 31.5125 226.417 31.671C226.064 31.8297 225.747 32.0613 225.492 32.3504C225.235 32.6395 225.043 32.9799 224.927 33.3489C224.813 33.7178 224.776 34.1069 224.823 34.4907V45.5289H218.702L218.804 26.7579Z" fill="#1D2058"/>
<path id="Vector_2" d="M58.1076 21.9019C57.0692 19.5277 55.6951 17.3151 54.0269 15.332C51.5612 12.313 48.484 9.85047 44.9979 8.10642C41.5118 6.3624 37.6958 5.37641 33.8012 5.21337C29.9066 5.05033 26.0217 5.71392 22.4019 7.16051C18.7823 8.60708 15.5101 10.8038 12.8006 13.6062C10.0911 16.4085 8.00575 19.7529 6.68189 23.4192C5.35803 27.0855 4.82561 30.9907 5.1197 34.8775C5.41381 38.7645 6.52772 42.545 8.38817 45.9703C10.2486 49.3958 12.8134 52.3884 15.9137 54.7511C17.903 56.2974 20.1012 57.5545 22.4427 58.4848C25.7256 59.8302 29.2392 60.5231 32.7872 60.5252C40.1107 60.509 47.129 57.5898 52.3039 52.4073C57.4785 47.2249 60.3874 40.2023 60.3927 32.8788C60.398 29.1011 59.6201 25.3635 58.1076 21.9019ZM32.7668 10.8229C35.9529 10.8226 39.1005 11.5189 41.989 12.8632C41.2847 13.1676 40.5441 13.3801 39.7855 13.4957C37.2893 13.8571 34.977 15.0159 33.1936 16.7994C31.4102 18.5828 30.2512 20.8952 29.8899 23.3913C29.7314 24.7912 29.0946 26.0935 28.0873 27.0786C27.08 28.0636 25.7638 28.6708 24.3606 28.7982C21.8645 29.1595 19.5521 30.3184 17.7687 32.1018C15.9853 33.8853 14.8264 36.1976 14.4651 38.6937C14.3428 40.0248 13.7748 41.2757 12.8532 42.2439C11.2631 38.8841 10.5488 35.1764 10.7767 31.4663C11.0047 27.7562 12.1675 24.164 14.1569 21.0239C16.1464 17.884 18.8978 15.2984 22.1553 13.5076C25.4126 11.7169 29.0701 10.7793 32.7872 10.7821L32.7668 10.8229ZM15.8933 47.1611C16.1382 46.9366 16.383 46.7326 16.6278 46.4878C18.443 44.728 19.6082 42.4049 19.9332 39.8975C20.0649 38.4881 20.6942 37.1716 21.7082 36.1841C22.6841 35.1684 23.9975 34.5443 25.4012 34.4294C27.8973 34.0681 30.2096 32.9092 31.9931 31.1258C33.7765 29.3423 34.9354 27.03 35.2968 24.5339C35.3851 23.0597 36.0176 21.6709 37.0718 20.6369C38.0718 19.6409 39.3976 19.0395 40.8056 18.9434C43.0988 18.6279 45.2374 17.6084 46.9266 16.0257C48.85 17.6214 50.4794 19.541 51.7418 21.6978C51.6642 21.8025 51.5753 21.8984 51.4765 21.9835C50.5027 23.0081 49.191 23.6459 47.7835 23.779C45.2848 24.134 42.969 25.2908 41.1843 27.0753C39.3999 28.86 38.243 31.1757 37.888 33.6745C37.7441 35.0791 37.1192 36.3908 36.119 37.3873C35.1186 38.384 33.8047 39.0041 32.3995 39.1426C29.896 39.5011 27.5752 40.6577 25.7813 42.4404C23.9877 44.2232 22.8167 46.5369 22.4427 49.0382C22.333 50.0353 21.9904 50.9928 21.443 51.8334C19.3496 50.5904 17.4747 49.012 15.8933 47.1611ZM32.7668 55.0367C30.6964 55.0389 28.6359 54.7504 26.6458 54.1798C27.3267 52.9107 27.7692 51.5275 27.9516 50.0991C28.0946 48.6976 28.7167 47.3883 29.7128 46.3923C30.7089 45.3962 32.0182 44.7741 33.4197 44.6311C35.9195 44.2738 38.2365 43.1167 40.024 41.3329C41.8113 39.5492 42.9733 37.2345 43.3356 34.7355C43.4787 33.334 44.1008 32.0247 45.0968 31.0286C46.0929 30.0325 47.4022 29.4104 48.8037 29.2674C50.6849 29.0228 52.4779 28.3223 54.0269 27.2271C54.8871 30.4873 54.9889 33.9012 54.3248 37.2069C53.6607 40.5127 52.248 43.6225 50.1954 46.2976C48.1428 48.9725 45.5049 51.1419 42.4836 52.6391C39.4625 54.1363 36.1386 54.9216 32.7668 54.9347V55.0367Z" fill="url(#paint0_linear_7_2215)"/>
</g>
<defs>
<linearGradient id="paint0_linear_7_2215" x1="7.46872" y1="32.8572" x2="64.5702" y2="33.476" gradientUnits="userSpaceOnUse">
<stop stop-color="#1259C4"/>
<stop offset="1" stop-color="#BB37E9"/>
</linearGradient>
</defs>
</svg>
