<svg width="210" height="34" viewBox="0 0 210 34" fill="none" xmlns="http://www.w3.org/2000/svg">
<g id="Stars">
<path id="Star 1" d="M16.0665 1.87021C16.4333 1.12696 17.4931 1.12696 17.8599 1.87021L21.5788 9.40548C21.7245 9.70062 22.0061 9.90519 22.3318 9.95252L30.6474 11.1609C31.4676 11.28 31.7952 12.288 31.2016 12.8665L25.1844 18.7319C24.9487 18.9617 24.8411 19.2927 24.8968 19.6171L26.3173 27.8991C26.4574 28.716 25.5999 29.339 24.8663 28.9533L17.4286 25.043C17.1372 24.8899 16.7892 24.8899 16.4979 25.043L9.06012 28.9533C8.32649 29.339 7.46906 28.716 7.60917 27.8991L9.02965 19.6171C9.08529 19.2927 8.97774 18.9617 8.74206 18.7319L2.72479 12.8665C2.13127 12.288 2.45878 11.28 3.279 11.1609L11.5947 9.95252C11.9204 9.90519 12.2019 9.70062 12.3476 9.40547L16.0665 1.87021Z" fill="url(#paint0_linear_4_727)"/>
<path id="Star 2" d="M60.0576 1.87021C60.4244 1.12696 61.4842 1.12696 61.851 1.87021L65.5699 9.40548C65.7156 9.70062 65.9971 9.90519 66.3229 9.95252L74.6385 11.1609C75.4587 11.28 75.7862 12.288 75.1927 12.8665L69.1755 18.7319C68.9398 18.9617 68.8322 19.2927 68.8879 19.6171L70.3083 27.8991C70.4485 28.716 69.591 29.339 68.8574 28.9533L61.4196 25.043C61.1283 24.8899 60.7803 24.8899 60.489 25.043L53.0512 28.9533C52.3176 29.339 51.4601 28.716 51.6003 27.8991L53.0207 19.6171C53.0764 19.2927 52.9688 18.9617 52.7331 18.7319L46.7159 12.8665C46.1224 12.288 46.4499 11.28 47.2701 11.1609L55.5858 9.95252C55.9115 9.90519 56.193 9.70062 56.3387 9.40547L60.0576 1.87021Z" fill="url(#paint1_linear_4_727)"/>
<path id="Star 3" d="M104.05 1.87021C104.416 1.12696 105.476 1.12696 105.843 1.87021L109.562 9.40548C109.708 9.70062 109.989 9.90519 110.315 9.95252L118.631 11.1609C119.451 11.28 119.778 12.288 119.185 12.8665L113.168 18.7319C112.932 18.9617 112.824 19.2927 112.88 19.6171L114.3 27.8991C114.441 28.716 113.583 29.339 112.849 28.9533L105.412 25.043C105.12 24.8899 104.772 24.8899 104.481 25.043L97.0433 28.9533C96.3096 29.339 95.4522 28.716 95.5923 27.8991L97.0128 19.6171C97.0684 19.2927 96.9609 18.9617 96.7252 18.7319L90.7079 12.8665C90.1144 12.288 90.4419 11.28 91.2622 11.1609L99.5778 9.95252C99.9035 9.90519 100.185 9.70062 100.331 9.40547L104.05 1.87021Z" fill="url(#paint2_linear_4_727)"/>
<path id="Star 4" d="M148.041 1.87021C148.407 1.12696 149.467 1.12696 149.834 1.87021L153.553 9.40548C153.699 9.70062 153.98 9.90519 154.306 9.95252L162.622 11.1609C163.442 11.28 163.769 12.288 163.176 12.8665L157.159 18.7319C156.923 18.9617 156.815 19.2927 156.871 19.6171L158.291 27.8991C158.432 28.716 157.574 29.339 156.84 28.9533L149.403 25.043C149.111 24.8899 148.763 24.8899 148.472 25.043L141.034 28.9533C140.301 29.339 139.443 28.716 139.583 27.8991L141.004 19.6171C141.059 19.2927 140.952 18.9617 140.716 18.7319L134.699 12.8665C134.105 12.288 134.433 11.28 135.253 11.1609L143.569 9.95252C143.895 9.90519 144.176 9.70062 144.322 9.40547L148.041 1.87021Z" fill="url(#paint3_linear_4_727)"/>
<path id="Star 5" d="M192.032 1.87021C192.399 1.12696 193.458 1.12696 193.825 1.87021L197.544 9.40548C197.69 9.70062 197.971 9.90519 198.297 9.95252L206.613 11.1609C207.433 11.28 207.76 12.288 207.167 12.8665L201.15 18.7319C200.914 18.9617 200.806 19.2927 200.862 19.6171L202.282 27.8991C202.423 28.716 201.565 29.339 200.832 28.9533L193.394 25.043C193.102 24.8899 192.754 24.8899 192.463 25.043L185.025 28.9533C184.292 29.339 183.434 28.716 183.574 27.8991L184.995 19.6171C185.051 19.2927 184.943 18.9617 184.707 18.7319L178.69 12.8665C178.096 12.288 178.424 11.28 179.244 11.1609L187.56 9.95252C187.886 9.90519 188.167 9.70062 188.313 9.40547L192.032 1.87021Z" fill="#C4C4C4"/>
</g>
<defs>
<linearGradient id="paint0_linear_4_727" x1="1.91352" y1="16.55" x2="35.9501" y2="16.9188" gradientUnits="userSpaceOnUse">
<stop stop-color="#1259C4"/>
<stop offset="1" stop-color="#BB37E9"/>
</linearGradient>
<linearGradient id="paint1_linear_4_727" x1="45.9046" y1="16.55" x2="79.9411" y2="16.9188" gradientUnits="userSpaceOnUse">
<stop stop-color="#1259C4"/>
<stop offset="1" stop-color="#BB37E9"/>
</linearGradient>
<linearGradient id="paint2_linear_4_727" x1="89.8967" y1="16.55" x2="123.933" y2="16.9188" gradientUnits="userSpaceOnUse">
<stop stop-color="#1259C4"/>
<stop offset="1" stop-color="#BB37E9"/>
</linearGradient>
<linearGradient id="paint3_linear_4_727" x1="133.888" y1="16.55" x2="167.924" y2="16.9188" gradientUnits="userSpaceOnUse">
<stop stop-color="#1259C4"/>
<stop offset="1" stop-color="#BB37E9"/>
</linearGradient>
</defs>
</svg>
